<?xml version="1.0" encoding="utf-8"?>
<!DOCTYPE svg PUBLIC "-//W3C//DTD SVG 20010904//EN" "http://www.w3.org/TR/2001/REC-SVG-20010904/DTD/svg10.dtd">
<svg version="1.0" width="342pt" height="342pt" viewBox="0 0 342 342" preserveAspectRatio="xMidYMid meet" xmlns="http://www.w3.org/2000/svg">
  <g transform="translate(0,342)scale(.075,.075)" fill="#D6492E">
    <path id="path1" d="M 0 -2280 l 0 2280 2280 0 2280 0 0 -2280 0 -2280 -2280 0 -2280 0 0 2280 z m 2034 -661 c 3 5 -10 25 -29 44 l -35 35 0 426 c 0 290 4 433 11 449 17 38 50 47 171 47 121 0 201 -16 281 -57 38 -19 52 -22 61 -13 8 9 -5 26 -53 71 l -64 59 -287 0 c -158 0 -289 -3 -292 -6 -4 -3 4 -27 15 -52 21 -45 22 -61 25 -466 2 -231 1 -430 -3 -443 -5 -20 -12 -23 -50 -23 -24 0 -47 -4 -50 -10 -3 -5 16 -23 42 -40 45 -28 54 -30 150 -30 56 0 104 4 107 9 z m 700 277 c 13 5 16 22 16 80 l 0 73 78 3 77 3 3 63 3 62 -81 0 -80 0 0 80 0 80 -70 0 -70 0 0 -80 0 -80 -80 0 -81 0 3 -62 3 -63 77 -3 78 -3 0 -73 c 0 -40 3 -76 7 -79 8 -9 96 -9 117 -1 z m -882 1800 l -4 136 66 -4 c 52 -3 63 -1 54 9 -7 9 -36 13 -84 13 l -74 0 0 -135 c 0 -116 -2 -135 -16 -135 -8 0 -12 -4 -9 -10 3 -6 21 -10 38 -10 l 32 0 -3 136 z m 820 -9 c -3 113 -2 128 14 140 16 11 13 13 -22 13 l -39 0 3 -130 c 2 -91 0 -130 -8 -130 -6 0 -8 -4 -5 -10 3 -6 18 -10 33 -10 l 27 0 -3 127 z m -501 2 c 38 39 39 80 0 123 -24 27 -36 33 -71 33 -35 0 -47 -6 -71 -33 -33 -36 -36 -60 -14 -102 19 -37 41 -49 88 -50 29 0 45 7 68 29 z m 213 -3 c 18 19 26 37 26 63 0 47 -21 77 -66 91 -97 32 -167 -79 -95 -151 40 -39 97 -41 135 -3 z m 201 -13 c -12 10 -14 16 -7 21 19 11 14 54 -8 76 -26 26 -25 34 5 64 37 37 34 81 -7 106 -88 54 -207 -14 -134 -77 15 -13 38 -23 52 -23 17 0 24 -5 24 -20 0 -11 -7 -20 -15 -20 -23 0 -65 -46 -65 -70 0 -12 11 -32 25 -45 20 -21 34 -25 86 -25 55 0 61 2 44 13 z m 260 1 c 28 20 13 41 -44 62 -56 20 -62 33 -30 65 17 17 29 20 63 16 l 41 -6 -24 20 c -75 61 -186 -37 -139 -124 6 -12 18 -27 27 -34 22 -17 83 -16 106 1 z M 2059 -869 c -17 17 -20 28 -14 57 13 74 60 105 99 66 39 -38 -1 -144 -53 -144 -6 0 -20 9 -32 21 z M 2282 -874 c -41 28 -23 128 26 141 39 9 57 -8 60 -60 3 -39 -1 -51 -22 -72 -29 -29 -34 -30 -64 -9 z M 2482 -878 c -29 29 2 102 41 96 29 -4 36 -61 11 -89 -20 -22 -35 -24 -52 -7 z M 2466 -694 c -33 32 -6 74 48 74 54 0 74 -40 38 -73 -23 -21 -66 -22 -86 -1 z M 2751 -866 c -7 8 -11 22 -9 30 3 12 8 12 41 -1 21 -9 36 -21 34 -27 -6 -17 -52 -19 -66 -2 z " />
  </g>
</svg>